<?xml version="1.0" encoding="UTF-8" standalone="no"?>
<svg
   xmlns:dc="http://purl.org/dc/elements/1.1/"
   xmlns:cc="http://creativecommons.org/ns#"
   xmlns:rdf="http://www.w3.org/1999/02/22-rdf-syntax-ns#"
   xmlns:svg="http://www.w3.org/2000/svg"
   xmlns="http://www.w3.org/2000/svg"
   xmlns:sodipodi="http://sodipodi.sourceforge.net/DTD/sodipodi-0.dtd"
   xmlns:inkscape="http://www.inkscape.org/namespaces/inkscape"
   version="1.1"
   id="svg2"
   width="96"
   height="96"
   viewBox="0 0 96 96"
   sodipodi:docname="fte.svg"
   inkscape:version="1.0.1 (3bc2e813f5, 2020-09-07)">
  <style>
	@media (prefers-color-scheme: dark) {
	path {
		fill: white;
	}
	g {
		fill: white;
	}
	}
	@media (prefers-color-scheme: light) {
	path {
			fill: black;
	}
	g {
			fill: black;
	}
	}
  </style>
  <title
     id="title961">FTE Logo</title>
  <defs
     id="defs6" />
  <sodipodi:namedview
     pagecolor="#ffffff"
     bordercolor="#666666"
     borderopacity="1"
     objecttolerance="10"
     gridtolerance="10"
     guidetolerance="10"
     inkscape:pageopacity="0"
     inkscape:pageshadow="2"
     inkscape:window-width="1920"
     inkscape:window-height="1002"
     id="namedview4"
     showgrid="false"
     inkscape:zoom="0.82714844"
     inkscape:cx="479.9262"
     inkscape:cy="479.87855"
     inkscape:window-x="0"
     inkscape:window-y="0"
     inkscape:window-maximized="1"
     inkscape:current-layer="layer1"
     inkscape:document-rotation="0" />
  <g
     inkscape:groupmode="layer"
     id="layer1"
     inkscape:label="Logo"
     style="display:inline"
     transform="translate(-32.0738,-32.121449)">
    <g
       id="g894"
       style="display:inline;opacity:1"
       transform="matrix(0.10002034,0,0,0.10002035,28.865768,28.90865)">
      <path
         style="fill-opacity:1"
         d="m 193.07895,501.41667 c 0.048,-1.16495 0.28494,-1.4019 0.60416,-0.60417 0.28887,0.72187 0.25335,1.58438 -0.0789,1.91667 -0.3323,0.33229 -0.56864,-0.25834 -0.52522,-1.3125 z M 834.28601,493.5 c 0.008,-2.75 0.20172,-3.75631 0.43157,-2.23625 0.22986,1.52006 0.22371,3.77006 -0.0136,5 -0.23736,1.22994 -0.42542,-0.0138 -0.41792,-2.76375 z M 141.232,472 c 0,-1.925 0.2058,-2.7125 0.45733,-1.75 0.25152,0.9625 0.25152,2.5375 0,3.5 -0.25153,0.9625 -0.45733,0.175 -0.45733,-1.75 z M 234,417.62244 c 0,-0.20765 0.7875,-0.99515 1.75,-1.75 1.58606,-1.24387 1.62143,-1.2085 0.37756,0.37756 C 234.82119,417.91575 234,418.44548 234,417.62244 Z m 191.8125,-84.30555 c 0.72187,-0.28887 1.58438,-0.25335 1.91667,0.0789 0.33229,0.33229 -0.25834,0.56864 -1.3125,0.52522 -1.16495,-0.048 -1.4019,-0.28494 -0.60417,-0.60416 z m 178,0 c 0.72187,-0.28887 1.58438,-0.25335 1.91667,0.0789 0.33229,0.33229 -0.25834,0.56864 -1.3125,0.52522 -1.16495,-0.048 -1.4019,-0.28494 -0.60417,-0.60416 z m -165,-2 c 0.72187,-0.28887 1.58438,-0.25335 1.91667,0.0789 0.33229,0.33229 -0.25834,0.56864 -1.3125,0.52522 -1.16495,-0.048 -1.4019,-0.28494 -0.60417,-0.60416 z m 151,0 c 0.72187,-0.28887 1.58438,-0.25335 1.91667,0.0789 0.33229,0.33229 -0.25834,0.56864 -1.3125,0.52522 -1.16495,-0.048 -1.4019,-0.28494 -0.60417,-0.60416 z m -17,-2 c 0.72187,-0.28887 1.58438,-0.25335 1.91667,0.0789 0.33229,0.33229 -0.25834,0.56864 -1.3125,0.52522 -1.16495,-0.048 -1.4019,-0.28494 -0.60417,-0.60416 z m -97,-51 c 0.72187,-0.28887 1.58438,-0.25335 1.91667,0.0789 0.33229,0.33229 -0.25834,0.56864 -1.3125,0.52522 -1.16495,-0.048 -1.4019,-0.28494 -0.60417,-0.60416 z m 75.45653,-0.01 c 0.97297,-0.25354 2.32297,-0.23687 3,0.0371 0.67703,0.27393 -0.11903,0.48137 -1.76903,0.46099 -1.65,-0.0204 -2.20394,-0.2445 -1.23097,-0.49804 z"
         id="path906" />
      <path
         style="fill-opacity:1"
         d="m 553.45255,364.5 c 3.1e-4,-20.35 0.13365,-28.53307 0.29631,-18.1846 0.16266,10.34848 0.16241,26.99848 -5.6e-4,37 -0.16297,10.00153 -0.29606,1.5346 -0.29575,-18.8154 z"
         id="path904" />
      <path
         style="fill-opacity:1"
         d="m 486.75,991.33772 c 0.6875,-0.27741 1.8125,-0.27741 2.5,0 0.6875,0.27741 0.125,0.50439 -1.25,0.50439 -1.375,0 -1.9375,-0.22698 -1.25,-0.50439 z m 48,0 c 0.6875,-0.27741 1.8125,-0.27741 2.5,0 0.6875,0.27741 0.125,0.50439 -1.25,0.50439 -1.375,0 -1.9375,-0.22698 -1.25,-0.50439 z m -35.98834,-64.04498 c 1.24391,-0.23919 3.04391,-0.23011 4,0.0202 0.95609,0.25029 -0.0617,0.446 -2.26166,0.4349 -2.2,-0.0111 -2.98225,-0.21589 -1.73834,-0.45508 z m 23,0 c 1.24391,-0.23919 3.04391,-0.23011 4,0.0202 0.95609,0.25029 -0.0617,0.446 -2.26166,0.4349 -2.2,-0.0111 -2.98225,-0.21589 -1.73834,-0.45508 z M 171.97111,851.25 165.5,844.5 l 6.75,6.47111 c 3.7125,3.55911 6.75,6.59661 6.75,6.75 0,0.73602 -1.01824,-0.20142 -7.02889,-6.47111 z M 851,851.5 c 3.54322,-3.575 6.66722,-6.5 6.94222,-6.5 0.275,0 -2.399,2.925 -5.94222,6.5 -3.54322,3.575 -6.66722,6.5 -6.94222,6.5 -0.275,0 2.399,-2.925 5.94222,-6.5 z M 233.87244,821.25 c -1.24387,-1.58606 -1.2085,-1.62143 0.37756,-0.37756 1.66575,1.30637 2.19548,2.12756 1.37244,2.12756 -0.20765,0 -0.99515,-0.7875 -1.75,-1.75 z M 788,822.62244 c 0,-0.20765 0.7875,-0.99515 1.75,-1.75 1.58606,-1.24387 1.62143,-1.2085 0.37756,0.37756 C 788.82119,822.91575 788,823.44548 788,822.62244 Z M 201.87244,789.25 c -1.24387,-1.58606 -1.2085,-1.62143 0.37756,-0.37756 1.66575,1.30637 2.19548,2.12756 1.37244,2.12756 -0.20765,0 -0.99515,-0.7875 -1.75,-1.75 z M 820,790.62244 c 0,-0.20765 0.7875,-0.99515 1.75,-1.75 1.58606,-1.24387 1.62143,-1.2085 0.37756,0.37756 C 820.82119,790.91575 820,791.44548 820,790.62244 Z M 553.4686,602 c 0,-32.175 0.12636,-45.3375 0.2808,-29.25 0.15445,16.0875 0.15445,42.4125 0,58.5 -0.15444,16.0875 -0.2808,2.925 -0.2808,-29.25 z M 798.5,570 c 0.99549,-1.1 2.03498,-2 2.30998,-2 0.275,0 -0.31449,0.9 -1.30998,2 -0.99549,1.1 -2.03498,2 -2.30998,2 -0.275,0 0.31449,-0.9 1.30998,-2 z M 32.157895,536 c 0,-1.375 0.226973,-1.9375 0.504386,-1.25 0.277412,0.6875 0.277412,1.8125 0,2.5 -0.277413,0.6875 -0.504386,0.125 -0.504386,-1.25 z m 958.999995,0 c 0,-1.375 0.22698,-1.9375 0.50439,-1.25 0.27741,0.6875 0.27741,1.8125 0,2.5 -0.27741,0.6875 -0.50439,0.125 -0.50439,-1.25 z M 96.252183,523.5 c 0.0111,-2.2 0.215885,-2.98225 0.455078,-1.73834 0.239193,1.24391 0.230112,3.04391 -0.02018,4 C 96.436788,526.71775 96.241084,525.7 96.252183,523.5 Z m 830.999997,0 c 0.0111,-2.2 0.21589,-2.98225 0.45508,-1.73834 0.23919,1.24391 0.23011,3.04391 -0.0202,4 -0.25029,0.95609 -0.446,-0.0617 -0.4349,-2.26166 z m -830.999997,-23 c 0.0111,-2.2 0.215885,-2.98225 0.455078,-1.73834 0.239193,1.24391 0.230112,3.04391 -0.02018,4 C 96.436788,503.71775 96.241084,502.7 96.252183,500.5 Z m 830.999997,0 c 0.0111,-2.2 0.21589,-2.98225 0.45508,-1.73834 0.23919,1.24391 0.23011,3.04391 -0.0202,4 -0.25029,0.95609 -0.446,-0.0617 -0.4349,-2.26166 z M 32.157895,488 c 0,-1.375 0.226973,-1.9375 0.504386,-1.25 0.277412,0.6875 0.277412,1.8125 0,2.5 -0.277413,0.6875 -0.504386,0.125 -0.504386,-1.25 z m 958.999995,0 c 0,-1.375 0.22698,-1.9375 0.50439,-1.25 0.27741,0.6875 0.27741,1.8125 0,2.5 -0.27741,0.6875 -0.50439,0.125 -0.50439,-1.25 z M 553.43244,425 c 0,-13.475 0.14155,-18.9875 0.31456,-12.25 0.17301,6.7375 0.17301,17.7625 0,24.5 -0.17301,6.7375 -0.31456,1.225 -0.31456,-12.25 z M 406.8125,285.31689 c 0.72187,-0.28887 1.58438,-0.25335 1.91667,0.0789 0.33229,0.33229 -0.25834,0.56864 -1.3125,0.52522 -1.16495,-0.048 -1.4019,-0.28494 -0.60417,-0.60416 z m 52,-6 c 0.72187,-0.28887 1.58438,-0.25335 1.91667,0.0789 0.33229,0.33229 -0.25834,0.56864 -1.3125,0.52522 -1.16495,-0.048 -1.4019,-0.28494 -0.60417,-0.60416 z m 108,0 c 0.72187,-0.28887 1.58438,-0.25335 1.91667,0.0789 0.33229,0.33229 -0.25834,0.56864 -1.3125,0.52522 -1.16495,-0.048 -1.4019,-0.28494 -0.60417,-0.60416 z m -87,-1 c 0.72187,-0.28887 1.58438,-0.25335 1.91667,0.0789 0.33229,0.33229 -0.25834,0.56864 -1.3125,0.52522 -1.16495,-0.048 -1.4019,-0.28494 -0.60417,-0.60416 z M 201,235.62244 c 0,-0.20765 0.7875,-0.99515 1.75,-1.75 1.58606,-1.24387 1.62143,-1.2085 0.37756,0.37756 C 201.82119,235.91575 201,236.44548 201,235.62244 Z M 820.87244,234.25 c -1.24387,-1.58606 -1.2085,-1.62143 0.37756,-0.37756 0.9625,0.75485 1.75,1.54235 1.75,1.75 0,0.82304 -0.82119,0.29331 -2.12756,-1.37244 z M 233,203.62244 c 0,-0.20765 0.7875,-0.99515 1.75,-1.75 1.58606,-1.24387 1.62143,-1.2085 0.37756,0.37756 C 233.82119,203.91575 233,204.44548 233,203.62244 Z M 788.87244,202.25 c -1.24387,-1.58606 -1.2085,-1.62143 0.37756,-0.37756 1.66575,1.30637 2.19548,2.12756 1.37244,2.12756 -0.20765,0 -0.99515,-0.7875 -1.75,-1.75 z M 172,172.5 c 3.54322,-3.575 6.66722,-6.5 6.94222,-6.5 0.275,0 -2.399,2.925 -5.94222,6.5 -3.54322,3.575 -6.66722,6.5 -6.94222,6.5 -0.275,0 2.399,-2.925 5.94222,-6.5 z m 678.97111,-0.25 -6.47111,-6.75 6.75,6.47111 c 6.26969,6.01065 7.20713,7.02889 6.47111,7.02889 -0.15339,0 -3.19089,-3.0375 -6.75,-6.75 z M 498.76166,96.292739 c 1.24391,-0.239193 3.04391,-0.230112 4,0.02018 0.95609,0.250292 -0.0617,0.445996 -2.26166,0.434897 -2.2,-0.0111 -2.98225,-0.215885 -1.73834,-0.455077 z m 23,0 c 1.24391,-0.239193 3.04391,-0.230112 4,0.02018 0.95609,0.250292 -0.0617,0.445996 -2.26166,0.434897 -2.2,-0.0111 -2.98225,-0.215885 -1.73834,-0.455077 z M 486.75,32.337719 c 0.6875,-0.277412 1.8125,-0.277412 2.5,0 0.6875,0.277413 0.125,0.504386 -1.25,0.504386 -1.375,0 -1.9375,-0.226973 -1.25,-0.504386 z m 48,0 c 0.6875,-0.277412 1.8125,-0.277412 2.5,0 0.6875,0.277413 0.125,0.504386 -1.25,0.504386 -1.375,0 -1.9375,-0.226973 -1.25,-0.504386 z"
         id="path902" />
      <path
         style="fill-opacity:1"
         d="m 490.75,991.33772 c 0.6875,-0.27741 1.8125,-0.27741 2.5,0 0.6875,0.27741 0.125,0.50439 -1.25,0.50439 -1.375,0 -1.9375,-0.22698 -1.25,-0.50439 z m 40,0 c 0.6875,-0.27741 1.8125,-0.27741 2.5,0 0.6875,0.27741 0.125,0.50439 -1.25,0.50439 -1.375,0 -1.9375,-0.22698 -1.25,-0.50439 z m -37,-64 c 0.6875,-0.27741 1.8125,-0.27741 2.5,0 0.6875,0.27741 0.125,0.50439 -1.25,0.50439 -1.375,0 -1.9375,-0.22698 -1.25,-0.50439 z m 34,0 c 0.6875,-0.27741 1.8125,-0.27741 2.5,0 0.6875,0.27741 0.125,0.50439 -1.25,0.50439 -1.375,0 -1.9375,-0.22698 -1.25,-0.50439 z m -49.9375,-1.02083 c 0.72187,-0.28887 1.58438,-0.25335 1.91667,0.0789 0.33229,0.33229 -0.25834,0.56864 -1.3125,0.52522 -1.16495,-0.048 -1.4019,-0.28494 -0.60417,-0.60416 z m 67,0 c 0.72187,-0.28887 1.58438,-0.25335 1.91667,0.0789 0.33229,0.33229 -0.25834,0.56864 -1.3125,0.52522 -1.16495,-0.048 -1.4019,-0.28494 -0.60417,-0.60416 z M 187.87244,866.25 c -1.24387,-1.58606 -1.2085,-1.62143 0.37756,-0.37756 0.9625,0.75485 1.75,1.54235 1.75,1.75 0,0.82304 -0.82119,0.29331 -2.12756,-1.37244 z M 834,867.62244 c 0,-0.20765 0.7875,-0.99515 1.75,-1.75 1.58606,-1.24387 1.62143,-1.2085 0.37756,0.37756 C 834.82119,867.91575 834,868.44548 834,867.62244 Z M 156.87244,835.25 c -1.24387,-1.58606 -1.2085,-1.62143 0.37756,-0.37756 0.9625,0.75485 1.75,1.54235 1.75,1.75 0,0.82304 -0.82119,0.29331 -2.12756,-1.37244 z M 865,836.62244 c 0,-0.20765 0.7875,-0.99515 1.75,-1.75 1.58606,-1.24387 1.62143,-1.2085 0.37756,0.37756 C 865.82119,836.91575 865,837.44548 865,836.62244 Z M 217.47654,805.75 209.5,797.5 l 8.25,7.97654 c 7.66235,7.40837 8.70589,8.52346 7.97654,8.52346 -0.1504,0 -3.8629,-3.7125 -8.25,-8.25 z M 805.5,806 c 4.37419,-4.4 8.17808,-8 8.45308,-8 0.275,0 -3.07889,3.6 -7.45308,8 -4.37419,4.4 -8.17808,8 -8.45308,8 -0.275,0 3.07889,-3.6 7.45308,-8 z M 839,563.68709 c 0,-0.1721 1.4625,-1.6346 3.25,-3.25 l 3.25,-2.93709 -2.93709,3.25 C 839.82513,563.77946 839,564.45965 839,563.68709 Z M 97.078947,545.41667 c 0.04798,-1.16495 0.284941,-1.4019 0.604167,-0.60417 0.288871,0.72187 0.253344,1.58438 -0.07895,1.91667 -0.332292,0.33229 -0.568641,-0.25834 -0.52522,-1.3125 z m 829.000003,0 c 0.048,-1.16495 0.28494,-1.4019 0.60416,-0.60417 0.28887,0.72187 0.25335,1.58438 -0.0789,1.91667 -0.33229,0.33229 -0.56864,-0.25834 -0.52522,-1.3125 z M 32.157895,532 c 0,-1.375 0.226973,-1.9375 0.504386,-1.25 0.277412,0.6875 0.277412,1.8125 0,2.5 -0.277413,0.6875 -0.504386,0.125 -0.504386,-1.25 z m 958.999995,0 c 0,-1.375 0.22698,-1.9375 0.50439,-1.25 0.27741,0.6875 0.27741,1.8125 0,2.5 -0.27741,0.6875 -0.50439,0.125 -0.50439,-1.25 z M 96.157895,529 c 0,-1.375 0.226973,-1.9375 0.504386,-1.25 0.277412,0.6875 0.277412,1.8125 0,2.5 -0.277413,0.6875 -0.504386,0.125 -0.504386,-1.25 z m 830.999995,0 c 0,-1.375 0.22698,-1.9375 0.50439,-1.25 0.27741,0.6875 0.27741,1.8125 0,2.5 -0.27741,0.6875 -0.50439,0.125 -0.50439,-1.25 z M 96.157895,495 c 0,-1.375 0.226973,-1.9375 0.504386,-1.25 0.277412,0.6875 0.277412,1.8125 0,2.5 -0.277413,0.6875 -0.504386,0.125 -0.504386,-1.25 z m 830.999995,0 c 0,-1.375 0.22698,-1.9375 0.50439,-1.25 0.27741,0.6875 0.27741,1.8125 0,2.5 -0.27741,0.6875 -0.50439,0.125 -0.50439,-1.25 z M 32.157895,492 c 0,-1.375 0.226973,-1.9375 0.504386,-1.25 0.277412,0.6875 0.277412,1.8125 0,2.5 -0.277413,0.6875 -0.504386,0.125 -0.504386,-1.25 z m 958.999995,0 c 0,-1.375 0.22698,-1.9375 0.50439,-1.25 0.27741,0.6875 0.27741,1.8125 0,2.5 -0.27741,0.6875 -0.50439,0.125 -0.50439,-1.25 z M 97.078947,478.41667 c 0.04798,-1.16495 0.284941,-1.4019 0.604167,-0.60417 0.288871,0.72187 0.253344,1.58438 -0.07895,1.91667 -0.332292,0.33229 -0.568641,-0.25834 -0.52522,-1.3125 z m 829.000003,0 c 0.048,-1.16495 0.28494,-1.4019 0.60416,-0.60417 0.28887,0.72187 0.25335,1.58438 -0.0789,1.91667 -0.33229,0.33229 -0.56864,-0.25834 -0.52522,-1.3125 z M 181,384.68709 c 0,-0.1721 1.4625,-1.6346 3.25,-3.25 l 3.25,-2.93709 -2.93709,3.25 C 181.82513,384.77946 181,385.45965 181,384.68709 Z M 217.5,218 c 4.37419,-4.4 8.17808,-8 8.45308,-8 0.275,0 -3.07889,3.6 -7.45308,8 -4.37419,4.4 -8.17808,8 -8.45308,8 -0.275,0 3.07889,-3.6 7.45308,-8 z m 587.97654,-0.25 -7.97654,-8.25 8.25,7.97654 c 4.5375,4.3871 8.25,8.0996 8.25,8.25 0,0.72935 -1.11509,-0.31419 -8.52346,-7.97654 z M 156,189.62244 c 0,-0.20765 0.7875,-0.99515 1.75,-1.75 1.58606,-1.24387 1.62143,-1.2085 0.37756,0.37756 C 156.82119,189.91575 156,190.44548 156,189.62244 Z M 865.87244,188.25 c -1.24387,-1.58606 -1.2085,-1.62143 0.37756,-0.37756 1.66575,1.30637 2.19548,2.12756 1.37244,2.12756 -0.20765,0 -0.99515,-0.7875 -1.75,-1.75 z M 187,158.62244 c 0,-0.20765 0.7875,-0.99515 1.75,-1.75 1.58606,-1.24387 1.62143,-1.2085 0.37756,0.37756 C 187.82119,158.91575 187,159.44548 187,158.62244 Z M 834.87244,157.25 c -1.24387,-1.58606 -1.2085,-1.62143 0.37756,-0.37756 1.66575,1.30637 2.19548,2.12756 1.37244,2.12756 -0.20765,0 -0.99515,-0.7875 -1.75,-1.75 z M 477.8125,97.316886 c 0.72187,-0.288871 1.58438,-0.253344 1.91667,0.07895 0.33229,0.332292 -0.25834,0.568641 -1.3125,0.52522 -1.16495,-0.04798 -1.4019,-0.284941 -0.60417,-0.604167 z m 67,0 c 0.72187,-0.288871 1.58438,-0.253344 1.91667,0.07895 0.33229,0.332292 -0.25834,0.568641 -1.3125,0.52522 -1.16495,-0.04798 -1.4019,-0.284941 -0.60417,-0.604167 z M 493.75,96.337719 c 0.6875,-0.277412 1.8125,-0.277412 2.5,0 0.6875,0.277413 0.125,0.504386 -1.25,0.504386 -1.375,0 -1.9375,-0.226973 -1.25,-0.504386 z m 34,0 c 0.6875,-0.277412 1.8125,-0.277412 2.5,0 0.6875,0.277413 0.125,0.504386 -1.25,0.504386 -1.375,0 -1.9375,-0.226973 -1.25,-0.504386 z m -37,-64 c 0.6875,-0.277412 1.8125,-0.277412 2.5,0 0.6875,0.277413 0.125,0.504386 -1.25,0.504386 -1.375,0 -1.9375,-0.226973 -1.25,-0.504386 z m 40,0 c 0.6875,-0.277412 1.8125,-0.277412 2.5,0 0.6875,0.277413 0.125,0.504386 -1.25,0.504386 -1.375,0 -1.9375,-0.226973 -1.25,-0.504386 z"
         id="path900" />
      <path
         style="fill-opacity:1"
         d="m 494.8125,991.31689 c 0.72187,-0.28887 1.58438,-0.25335 1.91667,0.0789 0.33229,0.33229 -0.25834,0.56864 -1.3125,0.52522 -1.16495,-0.048 -1.4019,-0.28494 -0.60417,-0.60416 z m 33,0 c 0.72187,-0.28887 1.58438,-0.25335 1.91667,0.0789 0.33229,0.33229 -0.25834,0.56864 -1.3125,0.52522 -1.16495,-0.048 -1.4019,-0.28494 -0.60417,-0.60416 z M 489.75,927.33772 c 0.6875,-0.27741 1.8125,-0.27741 2.5,0 0.6875,0.27741 0.125,0.50439 -1.25,0.50439 -1.375,0 -1.9375,-0.22698 -1.25,-0.50439 z m 42,0 c 0.6875,-0.27741 1.8125,-0.27741 2.5,0 0.6875,0.27741 0.125,0.50439 -1.25,0.50439 -1.375,0 -1.9375,-0.22698 -1.25,-0.50439 z M 227.40499,815.75 225.5,813.5 l 2.25,1.90499 c 2.11444,1.79022 2.70524,2.59501 1.90499,2.59501 -0.18976,0 -1.20226,-1.0125 -2.25,-2.25 z M 795.5,816 c 0.99549,-1.1 2.03498,-2 2.30998,-2 0.275,0 -0.31449,0.9 -1.30998,2 -0.99549,1.1 -2.03498,2 -2.30998,2 -0.275,0 0.31449,-0.9 1.30998,-2 z M 207.40499,795.75 205.5,793.5 l 2.25,1.90499 c 2.11444,1.79022 2.70524,2.59501 1.90499,2.59501 -0.18976,0 -1.20226,-1.0125 -2.25,-2.25 z M 815.5,796 c 0.99549,-1.1 2.03498,-2 2.30998,-2 0.275,0 -0.31449,0.9 -1.30998,2 -0.99549,1.1 -2.03498,2 -2.30998,2 -0.275,0 0.31449,-0.9 1.30998,-2 z M 553.46167,496.5 c -2.1e-4,-25.85 0.12905,-36.56849 0.28724,-23.81886 0.15819,12.74963 0.15835,33.89963 3.7e-4,47 -0.15799,13.10037 -0.28741,2.66886 -0.28761,-23.18114 z M 96.157895,533 c 0,-1.375 0.226973,-1.9375 0.504386,-1.25 0.277412,0.6875 0.277412,1.8125 0,2.5 -0.277413,0.6875 -0.504386,0.125 -0.504386,-1.25 z m 830.999995,0 c 0,-1.375 0.22698,-1.9375 0.50439,-1.25 0.27741,0.6875 0.27741,1.8125 0,2.5 -0.27741,0.6875 -0.50439,0.125 -0.50439,-1.25 z M 32.078947,528.41667 c 0.04798,-1.16495 0.284941,-1.4019 0.604167,-0.60417 0.288871,0.72187 0.253344,1.58438 -0.07895,1.91667 -0.332292,0.33229 -0.568641,-0.25834 -0.52522,-1.3125 z m 959.000003,0 c 0.048,-1.16495 0.28494,-1.4019 0.60416,-0.60417 0.28887,0.72187 0.25335,1.58438 -0.0789,1.91667 -0.33229,0.33229 -0.56864,-0.25834 -0.52522,-1.3125 z m -959.000003,-33 c 0.04798,-1.16495 0.284941,-1.4019 0.604167,-0.60417 0.288871,0.72187 0.253344,1.58438 -0.07895,1.91667 -0.332292,0.33229 -0.568641,-0.25834 -0.52522,-1.3125 z m 959.000003,0 c 0.048,-1.16495 0.28494,-1.4019 0.60416,-0.60417 0.28887,0.72187 0.25335,1.58438 -0.0789,1.91667 -0.33229,0.33229 -0.56864,-0.25834 -0.52522,-1.3125 z M 96.157895,491 c 0,-1.375 0.226973,-1.9375 0.504386,-1.25 0.277412,0.6875 0.277412,1.8125 0,2.5 -0.277413,0.6875 -0.504386,0.125 -0.504386,-1.25 z m 830.999995,0 c 0,-1.375 0.22698,-1.9375 0.50439,-1.25 0.27741,0.6875 0.27741,1.8125 0,2.5 -0.27741,0.6875 -0.50439,0.125 -0.50439,-1.25 z M 207.5,228 c 0.99549,-1.1 2.03498,-2 2.30998,-2 0.275,0 -0.31449,0.9 -1.30998,2 -0.99549,1.1 -2.03498,2 -2.30998,2 -0.275,0 0.31449,-0.9 1.30998,-2 z m 607.90499,-0.25 -1.90499,-2.25 2.25,1.90499 c 2.11444,1.79022 2.70524,2.59501 1.90499,2.59501 -0.18976,0 -1.20226,-1.0125 -2.25,-2.25 z M 227.5,208 c 0.99549,-1.1 2.03498,-2 2.30998,-2 0.275,0 -0.31449,0.9 -1.30998,2 -0.99549,1.1 -2.03498,2 -2.30998,2 -0.275,0 0.31449,-0.9 1.30998,-2 z m 567.90499,-0.25 -1.90499,-2.25 2.25,1.90499 c 1.2375,1.04774 2.25,2.06024 2.25,2.25 0,0.80025 -0.80479,0.20945 -2.59501,-1.90499 z M 489.75,96.337719 c 0.6875,-0.277412 1.8125,-0.277412 2.5,0 0.6875,0.277413 0.125,0.504386 -1.25,0.504386 -1.375,0 -1.9375,-0.226973 -1.25,-0.504386 z m 42,0 c 0.6875,-0.277412 1.8125,-0.277412 2.5,0 0.6875,0.277413 0.125,0.504386 -1.25,0.504386 -1.375,0 -1.9375,-0.226973 -1.25,-0.504386 z M 494.8125,32.316886 c 0.72187,-0.288871 1.58438,-0.253344 1.91667,0.07895 0.33229,0.332292 -0.25834,0.568641 -1.3125,0.52522 -1.16495,-0.04798 -1.4019,-0.284941 -0.60417,-0.604167 z m 33,0 c 0.72187,-0.288871 1.58438,-0.253344 1.91667,0.07895 0.33229,0.332292 -0.25834,0.568641 -1.3125,0.52522 -1.16495,-0.04798 -1.4019,-0.284941 -0.60417,-0.604167 z"
         id="path898" />
      <path
         style="fill-opacity:1"
         d="M 492,991.41556 C 438.95884,987.88032 402.83184,981.18108 359.96527,966.93159 268.28361,936.45523 186.53435,877.44753 128.00559,799.5 75.541734,729.6296 43.158096,645.75478 34.377591,557 c -2.349008,-23.74416 -2.349008,-66.25584 0,-90 C 44.1507,368.21182 81.828056,278.66076 145.87263,202 158.21253,187.22925 187.22925,158.21253 202,145.87263 278.66076,81.828056 368.21182,44.1507 467,34.377591 c 23.74416,-2.349008 66.25584,-2.349008 90,0 98.78818,9.773109 188.33924,47.450465 265,111.495039 14.77075,12.3399 43.78747,41.35662 56.12737,56.12737 64.04457,76.66076 101.72193,166.21182 111.49504,265 2.34901,23.74416 2.34901,66.25584 0,90 -8.78051,88.75478 -41.16414,172.6296 -93.628,242.5 -26.81216,35.70794 -60.78647,69.68225 -96.49441,96.49441 -69.57487,52.24195 -154.81717,85.22963 -241.5,93.45741 -16.14669,1.53262 -55.08568,2.6912 -66,1.96374 z m 67,-65.89636 c 66.56676,-8.13486 129.41912,-31.09848 183,-66.86053 24.49083,-16.34617 42.88626,-31.45937 64.04278,-52.61589 32.83394,-32.83395 57.05699,-66.3103 77.46276,-107.05384 22.3898,-44.70499 35.82616,-89.63934 42.1588,-140.98894 2.53249,-20.53516 2.53249,-71.46484 0,-92 -6.33264,-51.3496 -19.769,-96.28395 -42.1588,-140.98894 C 863.09977,284.26752 838.87672,250.79117 806.04278,217.95722 773.20883,185.12328 739.73248,160.90023 698.98894,140.49446 654.28395,118.10466 609.3496,104.6683 558,98.335655 c -20.53516,-2.53248 -71.46484,-2.53248 -92,0 -51.3496,6.332645 -96.28395,19.769005 -140.98894,42.158805 -40.74354,20.40577 -74.21989,44.62882 -107.05384,77.46276 -32.83394,32.83395 -57.05699,66.3103 -77.46276,107.05384 C 118.10466,369.71605 104.6683,414.6504 98.335655,466 c -2.53248,20.53516 -2.53248,71.46484 0,92 8.368695,67.85931 31.038785,130.11222 67.005675,184 26.51968,39.73341 59.70738,74.88742 97.15867,102.91515 62.69629,46.92053 137.05387,75.09124 216.5,82.02201 15.8474,1.3825 64.07958,0.52761 80,-1.41796 z M 510.6561,866 c -0.36515,-1.375 -8.98715,-48.55814 -19.16,-104.85142 L 473,658.79716 V 492.83119 c 0,-157.58498 -0.0884,-165.94094 -1.75,-165.47032 -0.9625,0.27261 -5.125,0.77754 -9.25,1.12207 -21.81207,1.82181 -52.5776,7.24428 -76.7567,13.52847 -69.00216,17.93378 -125.05795,47.6168 -160.7433,85.11783 -33.12109,34.80629 -40.1434,70.22914 -21.4361,108.13067 6.09419,12.34701 13.5527,22.37758 25.92171,34.86078 27.48529,27.73903 64.46887,48.68687 115.51439,65.42838 l 16,5.24756 0.31562,3.6899 c 0.27054,3.16273 0.0562,3.6153 -1.5,3.16773 -0.99859,-0.28719 -8.02669,-2.1325 -15.61799,-4.10067 -49.42716,-12.81486 -99.94497,-35.47519 -132.4353,-59.40535 -35.9327,-26.46557 -57.34774,-54.6552 -65.98128,-86.85428 -2.31724,-8.64222 -2.62606,-11.67551 -2.62606,-25.79396 0,-14.13476 0.30742,-17.1468 2.63703,-25.83721 11.54281,-43.0595 50.46427,-83.02842 110.20798,-113.17391 24.34485,-12.28393 42.8396,-19.46153 81,-31.43514 1.65,-0.51772 10.425,-2.74724 19.5,-4.95448 52.07804,-12.66655 99.32243,-18.05577 158.5,-18.08028 84.04639,-0.0348 160.56508,13.17796 226.82263,39.1663 15.95855,6.25946 45.23665,20.79262 57.17737,28.3819 44.43532,28.24219 72.20377,61.58489 81.47327,97.82829 8.25963,32.29488 2.50893,62.55333 -17.68418,93.04865 -4.80686,7.25926 -10.70941,14.08845 -21.2239,24.55588 -21.03645,20.9423 -41.68644,35.24924 -73.56519,50.96822 -27.25182,13.4375 -55.28264,23.82938 -85.19763,31.58537 -7.5913,1.96817 -14.6194,3.81348 -15.61799,4.10067 -1.56006,0.44867 -1.7712,-0.007 -1.5,-3.23874 0.25324,-3.01765 0.80969,-3.90493 2.81562,-4.4896 63.02931,-18.37133 112.23896,-46.35808 139.89085,-79.5594 39.51174,-47.44132 35.49083,-99.93313 -11.10647,-144.99189 -40.10095,-38.7769 -106.01612,-67.4364 -187.15239,-81.37267 -13.05217,-2.24189 -31.83208,-4.63981 -43.13199,-5.50733 -4.4,-0.33779 -9.2375,-0.84803 -10.75,-1.13386 L 553,326.84109 v 167.13696 167.13696 l -20.40281,101.6925 C 521.37565,818.73838 511.99765,865.4 511.7572,866.5 c -0.39015,1.78481 -0.50863,1.73101 -1.1011,-0.5 z"
         id="path896" />
    </g>
  </g>
</svg>
