<?xml version="1.0" encoding="UTF-8" standalone="no"?>
<svg
   xmlns:dc="http://purl.org/dc/elements/1.1/"
   xmlns:cc="http://creativecommons.org/ns#"
   xmlns:rdf="http://www.w3.org/1999/02/22-rdf-syntax-ns#"
   xmlns:svg="http://www.w3.org/2000/svg"
   xmlns="http://www.w3.org/2000/svg"
   xmlns:sodipodi="http://sodipodi.sourceforge.net/DTD/sodipodi-0.dtd"
   xmlns:inkscape="http://www.inkscape.org/namespaces/inkscape"
   width="96"
   height="96"
   id="svg2871"
   version="1.1"
   inkscape:version="1.0.1 (3bc2e813f5, 2020-09-07)"
   sodipodi:docname="idtech.svg">
  <style>
	@media (prefers-color-scheme: dark) {
	path {
		fill: white;
	}
	g {
		fill: white;
	}
	}
	@media (prefers-color-scheme: light) {
	path {
			fill: black;
	}
	g {
			fill: black;
	}
	}
  </style>
  <g
     inkscape:label="Layer 1"
     inkscape:groupmode="layer"
     id="layer1"
     transform="translate(-397.0617,-329.75314)">
    <g
       id="g2980"
       transform="matrix(0.16473318,0,0,0.16473318,341.95041,292.08237)">
      <g
         transform="matrix(3.3118586,0,0,3.3118586,-964.3671,-1032.5273)"
         id="g2908">
        <path
           style="display:inline;overflow:visible;visibility:visible;stroke:none;stroke-width:1px;marker:none;enable-background:accumulate"
           d="m 522.08471,384.0977 c -7.39882,6.16944 -17.7004,6.02705 -27.84375,6.25 v 17.78125 h 4.71875 c 8.39601,0 10.34375,2.05876 10.34375,10.8125 v 12.59375 c -4.97028,-2.67349 -10.13811,-6.6875 -21.78125,-6.6875 -14.60881,0 -25.95434,7.63429 -35.1875,17.5625 v 56.75 c 0,3.65188 7.3096,9.25 13.8125,9.25 v 12.4375 c -14.95151,-5.7867 -24.5,-25.26069 -24.5,-45.5625 0,-11.51163 4.90697,-23.24487 10.6875,-32.875 v -14.65625 h -13.0625 c -2.1867,0 -2.39586,0.0498 -3,0.15625 l -31.125,5.5 0.4375,15.1875 h 4.4375 c 6.51354,0 9.6342,4.63737 9.96875,9.375 l 2.75,38.8125 c 0.3299,4.67178 -3.35538,8.75 -8.03125,8.75 -4.62297,0 -10.06199,3.37908 -9.65625,8.125 l 2.9375,34.125 c 0.33667,3.938 1.79454,8.96875 8.75,8.96875 h 123.78125 c 8.0572,0 11.18351,-2.64779 11.5625,-7.34375 l 2.84375,-35.03125 c 0.48422,-5.99977 -3.5559,-7.72556 -8.1875,-8.625 -6.86491,-1.33315 -7.89209,-6.34284 -7.5625,-14.09375 l 4.59375,-107.5625 z m -28.28125,60.625 c 6.59592,0 11.36827,4.95847 15.65625,9.1875 v 43.3125 c -4.81425,4.86014 -11.46812,9.8125 -18.21875,9.8125 -12.14342,0 -17.5,-17.63577 -17.5,-28.375 0,-14.30853 7.09348,-33.9375 20.0625,-33.9375 z m -0.15625,79.59375 c 7.15923,0.0392 14.6875,2.53597 14.6875,11.84375 h -14.65625 l 0.0312,-5.9375 c 0,-0.82508 -1.17407,-1.5 -2.125,-1.5 -1.1985,0 -2.75,0.35554 -2.75,1.625 v 14.625 c 0,1.01622 0.5099,2.25 2.5625,2.25 1.08473,0 2.25,-0.44059 2.25,-1.8125 v -5.125 h 14.375 c 0,10.51909 -9.34822,11.0625 -17.3125,11.0625 -12.17821,0 -15.625,-3.09716 -15.625,-7.75 v -11.46875 c 0,-7.49603 10.64383,-7.78125 17.125,-7.78125 0.47154,-0.0179 0.96022,-0.0339 1.4375,-0.0312 z m -47.125,0.3125 23.6875,0.34375 v 5.65625 h -9.28125 v 4.5 h 9.375 v 4.6875 l -9.1875,-0.0937 0.15625,5.84375 h 10.25 l -0.0937,5.46875 h -23.5 L 446.52226,524.629 Z m 99.53125,0.3125 -1.78125,25.9375 h -13.96875 l 0.4375,-10.78125 h -3.53125 l -0.75,10.9375 h -13.90625 l 0.53125,-25.9375 14.84375,-0.125 -0.4375,9.625 h 3.53125 l 0.3125,-9.59375 z m -133.65625,0.125 h 31.125 v 5.75 h -7.96875 l 0.71875,20.3125 h -13.96875 l -0.875,-20.6875 h -8.6875 z"
           id="path2832" />
        <path
           style="fill-opacity:1;fill-rule:nonzero;stroke:none"
           d="m 452.70377,400.52541 c 0,10.88586 -8.82474,19.7106 -19.71061,19.7106 -10.88586,0 -19.7106,-8.82474 -19.7106,-19.7106 0,-10.88587 8.82474,-19.71061 19.7106,-19.71061 10.88587,0 19.71061,8.82474 19.71061,19.71061 z"
           id="path2838" />
      </g>
    </g>
  </g>
</svg>
