<?xml version="1.0" encoding="UTF-8" standalone="no"?>
<svg
   xmlns:dc="http://purl.org/dc/elements/1.1/"
   xmlns:cc="http://creativecommons.org/ns#"
   xmlns:rdf="http://www.w3.org/1999/02/22-rdf-syntax-ns#"
   xmlns:svg="http://www.w3.org/2000/svg"
   xmlns="http://www.w3.org/2000/svg"
   xmlns:sodipodi="http://sodipodi.sourceforge.net/DTD/sodipodi-0.dtd"
   xmlns:inkscape="http://www.inkscape.org/namespaces/inkscape"
   version="1.1"
   width="1357.35"
   height="562.5"
   id="svg2"
   xml:space="preserve"
   sodipodi:docname="OpenGL_logo_(Nov14).svg"
   inkscape:version="1.0.2 (e86c870879, 2021-01-15)">
  <style>
	@media (prefers-color-scheme: dark) {
	path {
		fill: white;
	}
	g {
		fill: white;
	}
	}
	@media (prefers-color-scheme: light) {
	path {
			fill: black;
	}
	g {
			fill: black;
	}
	}
  </style><sodipodi:namedview
     pagecolor="#ffffff"
     bordercolor="#666666"
     borderopacity="1"
     objecttolerance="10"
     gridtolerance="10"
     guidetolerance="10"
     inkscape:pageopacity="0"
     inkscape:pageshadow="2"
     inkscape:window-width="1920"
     inkscape:window-height="1019"
     id="namedview15"
     showgrid="false"
     inkscape:zoom="0.82071685"
     inkscape:cx="678.67499"
     inkscape:cy="281.25"
     inkscape:window-x="0"
     inkscape:window-y="0"
     inkscape:window-maximized="1"
     inkscape:current-layer="g12" /><metadata
     id="metadata8"><rdf:RDF><cc:Work
         rdf:about=""><dc:format>image/svg+xml</dc:format><dc:type
           rdf:resource="http://purl.org/dc/dcmitype/StillImage" /><dc:title /></cc:Work></rdf:RDF></metadata><defs
     id="defs6" /><g
     transform="matrix(1.25,0,0,-1.25,0,562.5)"
     id="g10"><g
       transform="scale(0.1,0.1)"
       id="g12"><path
         d="m 1475.08,1979.84 c 25.13,-91.65 64.58,-174.12 118.42,-247.41 53.79,-73.32 122.84,-132.22 207.18,-176.77 84.27,-44.52 184.7,-66.72 301.35,-66.72 116.59,0 217.02,22.2 301.36,66.72 84.27,44.55 153.32,103.45 207.17,176.77 53.78,73.29 93.23,155.76 118.36,247.41 25.11,91.66 37.68,184.61 37.68,278.86 0,94.25 -12.57,187.13 -37.68,278.79 -25.13,91.66 -64.58,174.12 -118.36,247.47 -53.85,73.27 -122.9,132.17 -207.17,176.71 -84.34,44.53 -184.77,66.8 -301.36,66.8 -116.65,0 -217.08,-22.27 -301.35,-66.8 -84.34,-44.54 -153.39,-103.44 -207.18,-176.71 -53.84,-73.35 -93.29,-155.81 -118.42,-247.47 -25.12,-91.66 -37.62,-184.54 -37.62,-278.79 0,-94.25 12.5,-187.2 37.62,-278.86 z m -234.38,647.03 c 38.51,117.69 96.33,221.92 173.34,312.59 77.01,90.67 172.9,163.09 287.53,217.11 114.64,54.04 248.14,81.12 400.46,81.12 152.25,0 285.76,-27.08 400.4,-81.12 114.63,-54.02 210.52,-126.44 287.53,-217.11 77.01,-90.67 134.83,-194.9 173.33,-312.59 38.51,-117.69 57.82,-240.19 57.82,-367.5 0,-127.3 -19.31,-249.86 -57.82,-367.53 -38.5,-117.69 -96.32,-221.93 -173.33,-312.61 -77.01,-90.67 -172.9,-162.64 -287.53,-215.81 -114.64,-53.12 -248.15,-79.76 -400.4,-79.76 -152.32,0 -285.82,26.64 -400.46,79.76 -114.63,53.17 -210.52,125.14 -287.53,215.81 -77.01,90.68 -134.83,194.92 -173.34,312.61 -38.5,117.67 -57.76,240.23 -57.76,367.53 0,127.31 19.26,249.81 57.76,367.5"
         id="path14"
         style="fill-opacity:1;fill-rule:nonzero;stroke:none" /><path
         d="m 4116.68,2091.86 c -14.9,52.92 -37.55,100.1 -68.11,141.56 -30.56,41.44 -69.75,74.44 -117.54,98.98 -47.85,24.55 -103.83,36.83 -168.03,36.83 -67.42,0 -124.61,-13.08 -171.57,-39.16 -47.04,-26.1 -85.4,-60.21 -115.2,-102.39 -29.8,-42.19 -51.33,-90.18 -64.64,-143.91 -13.32,-53.71 -19.95,-108.18 -19.95,-163.38 0,-58.35 7,-114.74 21.15,-169.19 14.07,-54.54 36.41,-102.45 66.98,-143.91 30.54,-41.44 70.06,-74.81 118.66,-100.11 48.61,-25.33 107.38,-37.98 176.31,-37.98 68.93,0 126.5,13.01 172.7,39.1 46.21,26.09 83.46,60.63 111.67,103.62 28.16,42.93 48.54,92.03 61.1,147.29 12.5,55.27 18.81,112.02 18.81,170.36 0,55.22 -7.44,109.3 -22.34,162.29 z m -716.96,423.36 0,-161.35 4.03,0 c 32.96,66.06 84.78,114.11 155.48,144.09 70.7,29.97 148.4,44.96 233.25,44.96 94.18,0 176.24,-16.89 246.18,-50.7 69.88,-33.8 127.95,-79.45 174.28,-136.99 46.34,-57.6 81.24,-123.98 104.85,-199.18 23.55,-75.23 35.35,-155.05 35.35,-239.49 0,-84.44 -11.42,-164.26 -34.15,-239.51 -22.79,-75.23 -57.31,-140.87 -103.65,-196.87 -46.33,-56.01 -104.47,-100.17 -174.34,-132.37 -69.95,-32.2 -151.19,-48.35 -243.85,-48.35 -29.86,0 -63.25,3.07 -100.12,9.19 -36.92,6.21 -73.41,16.14 -109.52,29.96 -36.1,13.82 -70.32,32.71 -102.51,56.51 -32.19,23.81 -59.27,53.35 -81.25,88.76 l -4.03,0 0,-614.708 -202.01,0 0,1646.048 202.01,0"
         id="path16"
         style="fill-opacity:1;fill-rule:nonzero;stroke:none" /><path
         d="m 5334.47,2164.7 c -18.02,41.33 -42.34,76.98 -72.89,106.83 -30.62,29.85 -66.72,53.6 -108.26,71.24 -41.6,17.64 -87.49,26.46 -137.68,26.46 -51.76,0 -98.47,-8.82 -140.01,-26.46 -41.59,-17.64 -77.26,-41.76 -107.05,-72.35 -29.8,-30.65 -53.34,-66.31 -70.58,-106.89 -17.29,-40.59 -27.46,-83.88 -30.61,-129.84 l 698.92,0 c -3.17,45.96 -13.77,89.63 -31.84,131.01 z m 48.95,-764.03 c -91.29,-67.48 -206.11,-101.21 -344.61,-101.21 -97.59,0 -182.24,15.34 -253.82,46 -71.65,30.71 -131.86,73.71 -180.66,128.98 -48.79,55.27 -85.4,121.25 -109.77,198.04 -24.37,76.75 -38.13,160.45 -41.29,250.99 0,90.54 14.14,173.43 42.55,248.7 28.34,75.24 68.11,140.5 119.3,195.76 51.19,55.27 111.85,98.2 181.93,128.92 70.06,30.71 146.89,46.07 230.4,46.07 108.7,0 198.84,-21.95 270.54,-65.75 71.72,-43.85 129.22,-99.61 172.52,-167.28 43.31,-67.72 73.29,-141.55 89.83,-221.48 16.54,-80 23.23,-156.12 20.08,-228.41 l -913.03,0 c -1.58,-52.12 4.67,-101.53 18.81,-148.28 14.14,-46.75 36.87,-88.14 68.3,-124.17 31.44,-36.01 71.46,-64.69 120.19,-86.15 48.66,-21.48 105.98,-32.2 171.95,-32.2 84.77,0 154.28,19.17 208.44,57.61 54.16,38.42 89.88,96.82 107.18,175.29 l 198.21,0 c -26.77,-133.48 -85.78,-233.95 -177.05,-301.43"
         id="path18"
         style="fill-opacity:1;fill-rule:nonzero;stroke:none" /><path
         d="m 5904.18,2515.22 0,-189.05 3.79,0 c 83.69,144.46 216.44,216.75 398.18,216.75 80.55,0 147.7,-10.79 201.49,-32.31 53.71,-21.54 97.15,-51.51 130.35,-89.94 33.2,-38.42 56.5,-84.13 69.94,-137.17 13.38,-53.05 20.14,-111.84 20.14,-176.41 l 0,-783.95 -202,0 0,806.46 c 0,73.71 -22.11,132.06 -66.23,175.11 -44.18,43 -104.84,64.52 -182.05,64.52 -61.46,0 -114.68,-9.25 -159.63,-27.69 -44.94,-18.45 -82.38,-44.53 -112.3,-78.34 -29.9,-33.8 -52.38,-73.34 -67.34,-118.61 -15.02,-45.33 -22.48,-94.86 -22.48,-148.65 l 0,-672.8 -202,0 0,1192.08 190.14,0"
         id="path20"
         style="fill-opacity:1;fill-rule:nonzero;stroke:none" /><path
         d="m 8124.43,1336.09 c -91.21,-37.56 -183.32,-56.38 -276.23,-56.38 -146.7,0 -278.57,25 -395.72,74.83 -117.17,49.89 -215.94,118.6 -296.43,206.19 -80.48,87.52 -142.16,190.4 -185.09,308.59 -42.91,118.17 -64.38,245.6 -64.38,382.16 0,140.01 21.41,270.04 64.2,390 42.81,119.92 104.34,224.52 184.63,313.83 80.31,89.32 178.97,159.32 296.05,210.15 117.09,50.76 248.97,76.17 395.67,76.17 98.34,0 193.53,-14.49 285.62,-43.43 92.11,-28.98 175.26,-71.53 249.5,-127.67 74.21,-56.13 135.45,-125.33 183.73,-207.55 48.3,-82.28 77.85,-176.65 88.57,-283.23 l -402.34,0 c -25.06,104.79 -73.36,183.43 -144.89,235.86 -71.58,52.43 -158.3,78.64 -260.19,78.64 -94.81,0 -175.29,-17.94 -241.45,-53.84 -66.15,-35.9 -119.82,-84.08 -160.97,-144.46 -41.16,-60.45 -71.08,-129.15 -89.81,-206.19 -18.83,-77.05 -28.16,-156.67 -28.16,-238.96 0,-78.83 9.39,-155.43 28.2,-229.82 18.83,-74.38 48.81,-141.36 89.96,-200.89 41.15,-59.51 94.89,-107.19 161.15,-143.09 66.24,-35.9 146.82,-53.85 241.78,-53.85 139.63,0 247.44,34.41 323.56,103.26 76.13,68.82 120.45,168.63 133,299.38 l -423.8,0 0,307.91 803.57,0 0,-1011.99 -267.38,0 -42.82,212.3 c -75.11,-94.36 -158.32,-160.36 -249.53,-197.92"
         id="path22"
         style="fill-opacity:1;fill-rule:nonzero;stroke:none" /><path
         d="m 9367.09,3194.26 0,-1523.74 933.51,0 0,-347.38 -1353.67,0 0,1871.12 420.16,0"
         id="path24"
         style="fill-opacity:1;fill-rule:nonzero;stroke:none" /><path
         d="M 7380.08,1090.55 C 6737.23,708.5 5774.39,491.039 4700.12,491.039 c -1935.48,0 -3504.5,787.501 -3504.5,1758.961 0,971.46 1569.02,1758.98 3504.5,1758.98 1078.22,0 2044.96,-221.49 2687.83,-605.93 C 6686.25,4047.18 5428.11,4499.79 3989.58,4500 1786.4,4500.35 0.191406,3493.25 0,2250.62 -0.1875,1008.01 1785.68,0.300781 3988.87,0 5421.68,-0.238281 6676.56,450.922 7380.08,1090.55"
         id="path26"
         style="fill-opacity:1;fill-rule:nonzero;stroke:none" /><path
         d="m 10650.3,1509.99 20.3,0 c 13.4,0 22.9,2.18 28.5,6.54 5.5,4.38 8.2,10 8.2,16.9 0,6.89 -2.6,12.53 -7.9,16.89 -5.3,4.37 -14.3,6.55 -27,6.55 l -22.1,0 0,-46.88 z m -46.6,79.51 83.9,0 c 23.7,0 40.9,-4.78 51.6,-14.36 10.6,-9.57 15.9,-22.41 15.9,-38.5 0,-12.56 -4,-23.44 -12.1,-32.64 -8.2,-9.19 -21,-15.86 -38.4,-19.99 7.2,-2.76 12.5,-5.67 15.8,-8.73 4.8,-4.29 9.8,-10.65 15,-19.08 0.3,-0.61 10.4,-18.7 30.3,-54.24 l -55.2,0 c -17.9,35.7 -29.9,57.04 -36,64.02 -6.2,6.96 -12.3,10.46 -18.4,10.46 -1.4,0 -3.3,-0.24 -5.8,-0.7 l 0,-73.78 -46.6,0 0,187.54 z m 221.1,-93.77 c 0,39.07 -13.9,72.44 -41.5,100.1 -27.7,27.66 -61,41.48 -100.1,41.48 -39.1,0 -72.4,-13.82 -100.1,-41.48 -27.7,-27.66 -41.5,-61.03 -41.5,-100.1 0,-39.07 13.8,-72.43 41.5,-100.09 27.7,-27.65 61,-41.48 100.1,-41.48 39.1,0 72.4,13.83 100.1,41.48 27.6,27.66 41.5,61.02 41.5,100.09 z m 34,0 c 0,-31.4 -7.9,-60.67 -23.6,-87.79 -15.7,-27.12 -37.1,-48.5 -64.2,-64.12 -27.1,-15.64 -56.4,-23.45 -87.8,-23.45 -31.3,0 -60.4,7.81 -87.6,23.45 -27.1,15.62 -48.5,37 -64.2,64.12 -15.7,27.12 -23.6,56.39 -23.6,87.79 0,31.26 7.9,60.48 23.6,87.69 15.7,27.2 37.1,48.6 64.2,64.24 27.2,15.62 56.3,23.43 87.6,23.43 31.4,0 60.7,-7.81 87.8,-23.43 27.1,-15.64 48.5,-37.04 64.2,-64.24 15.7,-27.21 23.6,-56.43 23.6,-87.69"
         id="path28"
         style="fill-opacity:1;fill-rule:nonzero;stroke:none" /></g></g></svg>
